<svg width="41" height="36" viewBox="0 0 41 36" fill="none" xmlns="http://www.w3.org/2000/svg">
<path d="M33.3237 31.809C31.6768 31.9192 28.8998 31.9773 27.321 32.0034C31.8411 30.5247 37.6014 24.2194 37.6014 16.4795C37.6014 7.61365 29.8816 0 20.3906 0C10.8995 0 3.1797 7.61365 3.1797 16.4815C3.1797 24.2214 8.94404 30.5247 13.4601 32.0054C11.8813 31.9793 9.10232 31.9252 7.45737 31.813C4.11939 31.6047 1.92946 26.8081 1.92946 26.8081H0L3.33598 35.6219H17.7298L17.3651 32.336C17.3651 32.336 8.49924 26.6478 8.49924 16.0087C8.49924 5.36963 15.7482 2.18792 20.3906 2.18792C25.0329 2.18792 32.2839 5.36963 32.2839 16.0087C32.2839 26.6478 23.414 32.332 23.414 32.332L23.0493 35.6179H37.4431L40.7791 26.8041H38.8496C38.8496 26.8041 36.6597 31.6007 33.3217 31.809" fill="white"/>
</svg>
