<?xml version="1.0" encoding="UTF-8" standalone="no"?>

<svg
   width="169.78415mm"
   height="175.14227mm"
   viewBox="0 0 169.78415 175.14227"
   version="1.1"
   id="svg1"
   xmlns="http://www.w3.org/2000/svg"
   xmlns:svg="http://www.w3.org/2000/svg">
  <defs
     id="defs1" />
  <g
     id="layer1"
     transform="translate(-76.464583,-25.929167)">
    <path
       style=fill="currentColor"
       d="m 157.45326,200.63377 c -2.34152,-0.63019 -5.13117,-2.5899 -7.49383,-5.26439 -1.54812,-1.75244 -2.31633,-2.34332 -3.28215,-2.52451 -0.69353,-0.1301 -3.17876,-0.88043 -5.52274,-1.66738 -13.06721,-4.38713 -23.67183,-10.98591 -32.84431,-20.43753 -11.595616,-11.9485 -18.710838,-26.64929 -21.673445,-44.77961 l -0.609753,-3.73151 -1.90741,-1.97614 c -1.049076,-1.08688 -2.22491,-2.31176 -2.612966,-2.72195 -0.388055,-0.41019 -1.327347,-1.25487 -2.087313,-1.87707 -1.642345,-1.3446 -2.568248,-3.27242 -2.891124,-6.01959 -0.440076,-3.74437 1.456015,-8.42468 4.028671,-9.944391 0.568307,-0.3357 1.30941,-1.23622 1.646895,-2.00115 0.7113,-1.6122 2.343388,-2.74209 3.96358,-2.74398 1.036769,-0.001 1.165697,-0.12857 1.518974,-1.50062 0.998572,-3.87822 3.695106,-12.40154 4.82708,-15.25764 7.836041,-19.7712 24.462751,-35.316278 47.153611,-44.086099 2.27494,-0.879245 4.28795,-1.598626 4.47336,-1.598626 0.57069,0 0.38128,0.611423 -0.73389,2.368999 -2.20066,3.468384 -2.45678,5.111989 -2.45678,15.765662 0,7.193762 -0.11032,9.709055 -0.44098,10.054909 -0.34322,0.358989 3.08278,-1.14807 3.5516,-1.562311 0.0616,-0.05444 0.0972,-3.805651 0.0791,-8.336033 -0.0443,-11.091015 0.23541,-12.404078 3.48524,-16.361953 0.95093,-1.158114 2.42698,-2.978364 3.28011,-4.044999 2.01246,-2.516121 4.42055,-3.758007 8.27556,-4.267821 5.26288,-0.696002 9.78283,0.549352 12.49491,3.442651 2.01918,2.154095 5.19513,6.595626 6.04965,8.460388 0.72883,1.590476 0.79367,2.321809 0.91041,10.267315 0.10938,7.444624 0.0567,8.554861 -0.40627,8.554861 -0.29256,0 -2.19241,-0.555625 -4.22186,-1.234722 -4.24468,-1.420359 -4.47362,-1.45336 -4.25392,-0.613182 0.11022,0.421476 1.14997,0.945055 3.23017,1.626602 1.68721,0.552784 4.65513,1.820904 6.59542,2.818044 l 3.52778,1.812981 -0.11953,-2.028473 c -0.10577,-1.795007 -0.0429,-2.028472 0.54614,-2.028472 0.36612,0 2.24553,1.046952 4.17648,2.326559 12.11872,8.03092 19.51765,16.94354 23.6209,28.4533 l 0.97468,2.73403 h 8.06664 c 4.7681,0 8.06664,-0.13486 8.06664,-0.32981 0,-0.1814 0.18356,-0.77671 0.40792,-1.32292 0.56098,-1.36574 0.45656,-1.85332 -1.34594,-6.28477 -5.96771,-14.67161 -16.94114,-27.915772 -30.6356,-36.975023 -3.08533,-2.04102 -13.29768,-7.298589 -14.17685,-7.298589 -0.24043,0 -1.07729,-0.942655 -1.85969,-2.094789 -0.7824,-1.152134 -1.58206,-2.193378 -1.77702,-2.313876 -0.52724,-0.325851 -0.42883,-1.23578 0.13365,-1.23578 0.26848,0 2.05441,0.650204 3.96875,1.444898 11.28298,4.683889 22.57754,12.425622 31.2434,21.415449 8.3086,8.619234 13.17595,16.0965 16.80953,25.82299 1.63304,4.37142 1.96733,6.09799 1.64062,8.4735 l -0.24166,1.75706 h -1.39862 c -0.76925,0 -2.46092,0.15812 -3.75926,0.35139 -2.78884,0.41513 -22.65323,0.65083 -22.41483,0.26597 0.0901,-0.14552 1.01829,-0.26459 2.06253,-0.26459 1.04426,0 1.98097,-0.13319 2.08157,-0.29599 0.23728,-0.38391 -0.89616,-3.93734 -1.25588,-3.93734 -0.15091,0 -0.173,-0.26417 -0.0491,-0.58704 0.16015,-0.41739 0.0951,-0.50657 -0.22526,-0.3086 -0.33756,0.20863 -0.38734,0.0794 -0.19855,-0.51547 0.15451,-0.4868 0.11865,-0.71151 -0.0927,-0.58088 -0.18958,0.11716 -1.35121,-1.45576 -2.58141,-3.49539 -4.56635,-7.57088 -8.97752,-11.97312 -17.8283,-17.79218 -5.61495,-3.691614 -9.41149,-5.63624 -14.04845,-7.195752 -2.38875,-0.803391 -3.58967,-1.391277 -3.76757,-1.844351 -0.14362,-0.365784 -0.27229,2.051652 -0.28593,5.37208 l -0.0248,6.037143 3.0868,1.10642 c 1.69775,0.60853 4.11868,1.72996 5.37986,2.49207 l 2.29306,1.38566 0.11163,-0.8563 c 0.0614,-0.47097 0.20259,-0.8563 0.31376,-0.8563 0.27467,0 5.04267,3.86549 5.04267,4.08817 0,0.0975 -0.99219,-0.62746 -2.20487,-1.61093 -2.03091,-1.64706 -2.21431,-1.72752 -2.32472,-1.0199 -0.0839,0.53799 0.23326,1.03806 1.05833,1.66849 2.44693,1.86967 6.82026,6.32161 8.76469,8.92224 2.57166,3.43952 4.98697,8.36996 6.19545,12.64694 0.52073,1.84295 1.08954,3.50554 1.264,3.69463 0.17448,0.18909 1.14676,0.42721 2.16064,0.52916 l 1.84342,0.18537 0.0967,5.891461 0.0966,5.89145 -1.33137,0.23356 c -2.02814,0.35579 -2.75315,0.98078 -4.36983,3.76699 -0.81729,1.40854 -3.40487,5.40904 -5.75016,8.89 l -4.26415,6.32901 -0.11194,5.75363 -0.11193,5.75362 h 1.81082 c 3.31709,0 3.77895,0.83024 2.44509,4.39531 -0.83851,2.24115 -3.59279,5.46272 -5.40591,6.3231 -0.66121,0.31377 -2.02317,0.57048 -3.02658,0.57048 h -1.82437 l 0.73116,0.92952 c 0.61481,0.78161 0.73116,1.42719 0.73116,4.05695 v 3.12742 h 4.23334 4.23334 v -6.29096 -6.29095 l 1.4993,-1.19175 c 4.60039,-3.65671 9.33015,-9.12196 13.11471,-15.15412 2.4645,-3.92812 4.11118,-7.73066 5.11109,-11.80269 l 0.61016,-2.48481 8.08862,-0.17639 c 5.45546,-0.11896 8.31829,-0.31645 8.79417,-0.60663 0.57398,-0.35002 -0.36343,-0.43225 -5.02709,-0.44097 l -5.73264,-0.0107 v -5.6038 -5.60379 l 2.02847,-0.28367 c 1.189,-0.16628 1.66349,-0.33197 1.14654,-0.40038 -0.48508,-0.0642 -1.40891,-0.20221 -2.05298,-0.30672 l -1.17104,-0.19003 0.11271,-3.15523 c 0.0936,-2.619551 0.0229,-3.155221 -0.41648,-3.155221 -0.43957,0 -0.50999,0.53772 -0.41593,3.175811 l 0.11323,3.17581 h -1.76811 c -0.97246,0 -1.86622,0.15875 -1.98613,0.35277 -0.12254,0.19828 0.15802,0.35278 0.64064,0.35278 0.47226,0 1.35868,0.10001 1.96982,0.22223 l 1.11116,0.22223 -0.0969,5.51041 -0.0969,5.51041 -4.14514,0.0994 -4.14514,0.0994 v -9.18342 -9.183421 h -1.62756 -1.62755 l 0.24482,1.632611 c 0.13465,0.89793 0.31376,1.89012 0.39801,2.20486 0.0842,0.31474 -0.10354,0.0176 -0.41731,-0.6604 -0.31378,-0.67796 -0.65309,-1.741611 -0.75404,-2.363661 -0.16228,-0.99999 -0.0735,-1.15863 0.76673,-1.36951 0.52264,-0.13117 1.61712,-0.14709 2.43218,-0.0354 l 1.48191,0.20312 -0.12634,-1.32479 c -0.0837,-0.87803 0.0536,-1.47412 0.40718,-1.76758 0.41087,-0.34099 3.27662,-0.41694 12.46594,-0.33038 11.24226,0.1059 12.05025,0.15678 13.96963,0.87979 5.73508,2.16035 9.50863,7.351561 9.5675,13.161881 0.0326,3.21763 -0.70114,5.51834 -2.52202,7.90801 -2.05723,2.69985 -3.84921,3.76997 -10.14103,6.05595 -1.39769,0.50782 0.51197,0.59999 2.72049,0.13131 2.41628,-0.51277 5.47813,-2.24372 7.5575,-4.27246 3.63768,-3.54911 4.86898,-9.37382 3.15781,-14.93809 -0.11934,-0.38805 0.0608,-0.14993 0.40019,0.52917 0.47418,0.94866 0.61842,2.13377 0.62254,5.11528 0.005,3.54263 -0.0836,4.07325 -1.01652,6.09337 -1.17345,2.54101 -4.44246,5.85317 -6.99783,7.09021 l -1.57927,0.76451 -0.21934,2.55095 c -0.51047,5.93702 -2.47705,14.31323 -4.68454,19.95281 -2.38494,6.0929 -6.72415,13.83409 -10.75578,19.18838 -2.57968,3.426 -10.00081,10.94931 -13.58641,13.77347 -5.62472,4.43026 -12.83297,8.53212 -19.89245,11.31983 -3.9721,1.56853 -12.83303,4.10619 -14.34565,4.10841 -0.51082,7.5e-4 -1.20499,0.60227 -2.09639,1.8166 -3.09067,4.21034 -8.54573,6.11044 -13.62108,4.74447 z m 8.31536,-1.75659 c 1.76377,-0.86294 3.86529,-2.77662 5.1672,-4.70536 0.41217,-0.61061 1.30917,-0.9491 4.05695,-1.53091 16.57306,-3.50916 33.0369,-13.48009 43.29157,-26.2185 8.7499,-10.86918 14.0589,-22.38715 16.33048,-35.42925 1.07063,-6.14696 1.12333,-7.57363 0.27375,-7.41001 -0.49774,0.0959 -0.68549,0.83864 -1.05428,4.17101 -2.29227,20.71279 -14.53809,40.25788 -32.63008,52.07964 -6.91686,4.51964 -14.48411,7.96702 -21.46545,9.7789 -4.94084,1.28231 -6.68627,1.4962 -6.68627,0.81935 0,-0.59139 1.31207,-6.26324 1.4834,-6.41246 0.0573,-0.0499 1.45348,-0.35926 3.10271,-0.68754 3.9985,-0.79589 7.49229,-1.99271 11.21487,-3.84172 l 3.07263,-1.52618 0.0922,-14.57976 c 0.0664,-10.50828 0.20821,-14.7363 0.50775,-15.14031 0.22857,-0.3083 -0.0148,-0.15658 -0.54087,0.33716 l -0.95646,0.8977 -9.6e-4,13.3898 c -5.2e-4,7.36439 -0.11611,13.56742 -0.25684,13.78451 -0.87351,1.3474 -11.63864,5.16794 -14.71978,5.22404 l -1.41111,0.0257 -0.10128,-10.23055 c -0.10968,-11.07846 0.1486,-13.8688 1.51023,-16.31574 0.70972,-1.27542 0.76146,-1.57179 0.34677,-1.98648 -0.26807,-0.26807 -0.38073,-0.59406 -0.25037,-0.72443 0.13037,-0.13037 -0.062,-0.12229 -0.42745,0.0179 -0.37917,0.1455 -0.57843,0.11564 -0.46407,-0.0695 0.11023,-0.17849 -0.14154,-0.34507 -0.55949,-0.37017 -0.71319,-0.0428 -0.75682,0.10335 -0.70988,2.37848 0.0277,1.34342 -0.0902,2.33743 -0.26458,2.22967 -0.18214,-0.11256 -0.31782,5.49584 -0.32224,13.32014 -0.007,12.06131 -0.0813,13.84761 -0.69242,16.61163 -1.74321,7.88383 -5.75105,11.90269 -11.86515,11.89774 -1.86062,-10e-4 -2.58818,-0.22111 -5.27572,-1.59247 -3.56961,-1.82143 -4.51724,-2.62913 -5.98136,-5.09813 -0.65454,-1.10377 -1.22938,-1.70208 -1.5298,-1.59223 -0.93554,0.34208 -10.17584,-3.06439 -15.74652,-5.80502 -6.09381,-2.99799 -11.57171,-6.46427 -15.56921,-9.8518 -1.38404,-1.17286 -2.59846,-2.05044 -2.69871,-1.9502 -0.10024,0.10025 -0.30206,-0.0116 -0.44849,-0.24848 -0.17987,-0.29105 -0.10552,-0.35057 0.22926,-0.18353 0.27252,0.13598 0.12673,-0.0253 -0.32397,-0.35836 -1.23189,-0.9104 -4.37032,-4.25239 -6.41907,-6.83541 -1.00032,-1.26118 -2.0734,-2.49149 -2.38463,-2.73403 -0.31123,-0.24253 -0.41646,-0.4445 -0.23386,-0.44882 0.18261,-0.004 -0.0649,-0.33559 -0.54993,-0.73616 -0.48507,-0.40058 -0.64382,-0.62341 -0.35278,-0.49517 0.34979,0.15413 0.32175,0.063 -0.0827,-0.26885 -0.33653,-0.27611 -0.5334,-0.5805 -0.43747,-0.67642 0.0959,-0.0959 -0.18436,-0.57475 -0.62285,-1.06405 -0.43848,-0.4893 -0.8275,-1.03012 -0.86447,-1.20182 -0.037,-0.1717 -1.09027,-2.0972 -2.340679,-4.27888 -1.250406,-2.18168 -2.712411,-4.99949 -3.2489,-6.2618 -0.536489,-1.26231 -1.105387,-2.29511 -1.264218,-2.29511 -0.15883,0 -0.20526,-0.21766 -0.103177,-0.48368 0.102083,-0.26603 -0.05409,-0.72338 -0.347051,-1.01634 -0.292961,-0.29296 -0.458756,-0.60656 -0.368435,-0.69688 0.09032,-0.0903 -0.104056,-0.7839 -0.43195,-1.5413 -0.327893,-0.7574 -0.631097,-1.53583 -0.673785,-1.72986 -0.04269,-0.19403 -0.564109,-2.1784 -1.158713,-4.40972 -0.594604,-2.23132 -1.348464,-5.54142 -1.675245,-7.35578 -0.505479,-2.80654 -0.520676,-3.34536 -0.101831,-3.61057 0.595727,-0.37722 20.074354,-0.4221 20.663154,-0.0476 0.22841,0.14526 1.21688,1.86533 2.1966,3.82236 0.97973,1.95703 2.91864,5.12849 4.3087,7.04768 2.89415,3.99583 7.61596,9.43518 8.34421,9.61223 0.81006,0.19693 -0.0117,-0.97922 -2.05541,-2.94192 -2.82326,-2.71133 -6.89848,-8.41969 -8.94065,-12.52362 -1.01378,-2.03729 -2.35478,-4.49791 -2.98,-5.46805 -0.62521,-0.97014 -1.31514,-2.3592 -1.53317,-3.08681 -0.21802,-0.7276 -0.56972,-1.32567 -0.78154,-1.32903 -9.948963,-0.15813 -14.252682,-0.46547 -15.641829,-1.11702 -3.207054,-1.50421 -5.380805,-5.45591 -5.380805,-9.78186 0,-4.32743 2.064854,-8.058441 5.371785,-9.706361 1.794007,-0.89399 1.944479,-0.90809 9.690539,-0.90809 h 7.86823 v -0.88194 -0.88195 h -9.16409 -9.164087 l -0.570465,-0.87064 c -0.427719,-0.65278 -0.488649,-1.11622 -0.243495,-1.85208 l 0.326971,-0.98145 8.966616,-0.17036 8.96661,-0.17037 -8.99584,-0.18241 -8.995829,-0.18241 0.113605,-1.41111 c 0.149254,-1.85392 2.816368,-9.78949 4.565932,-13.5852 5.275612,-11.445524 14.924352,-22.2366 26.561232,-29.705875 6.13763,-3.939516 12.87454,-7.179281 15.74786,-7.573113 0.84827,-0.116268 1.51832,-0.398535 1.51832,-0.63961 0,-0.237326 0.45088,-1.325384 1.00196,-2.417907 0.55108,-1.092522 0.82889,-1.85608 0.61736,-1.696794 -0.21153,0.159285 -1.41647,0.656269 -2.67765,1.10441 -3.05137,1.084253 -8.77558,3.77762 -12.01839,5.654912 -7.474,4.326774 -13.32701,8.827761 -18.87591,14.51564 -8.05714,8.258951 -13.032358,16.484307 -16.850493,27.858337 -1.225791,3.65157 -3.407993,11.2029 -3.407993,11.79308 0,0.28167 -0.5482,0.57176 -1.322916,0.70004 -2.393137,0.39628 -3.168599,0.87749 -4.023216,2.49658 -0.455114,0.86222 -1.407155,1.952401 -2.115648,2.422621 -0.83199,0.55219 -1.644029,1.57967 -2.293056,2.90142 -0.858319,1.74797 -1.0022,2.45809 -0.986469,4.86868 0.02555,3.91458 1.386775,6.35487 4.085445,7.32402 0.316846,0.11378 0.951846,0.88722 1.411111,1.71875 0.459265,0.83153 1.490204,1.99458 2.290977,2.58455 1.397548,1.02965 1.473366,1.18589 1.890146,3.8949 0.913547,5.93794 3.334299,15.74992 3.94578,15.99333 0.163483,0.0651 0.216995,0.24817 0.118914,0.40687 -0.09808,0.15869 0.513941,2.01045 1.360047,4.11501 7.061083,17.56334 18.488121,30.45637 35.126291,39.63269 5.46987,3.01676 12.48404,5.84292 18.80215,7.57582 1.53915,0.42215 2.33881,0.90168 3.35139,2.00975 1.65177,1.80753 3.70618,3.74146 4.76197,4.48268 2.86897,2.01421 7.57914,2.27743 10.97988,0.61361 z m -0.29575,-2.14457 c 3.25896,-1.59446 5.34753,-5.0621 6.54554,-10.86748 0.60036,-2.90927 0.67253,-4.899 0.67667,-18.65637 l 0.005,-15.39978 -2.38125,0.9711 c -1.30967,0.53411 -3.09562,1.23273 -3.96875,1.55251 -0.87312,0.31977 -2.06375,0.96364 -2.64583,1.43081 l -1.05833,0.84941 v 13.69724 13.69723 l -1.41112,0.25044 c -0.77611,0.13774 -3.35579,0.25959 -5.73263,0.27077 -5.00077,0.0235 -4.72902,-0.27471 -3.63771,3.99229 0.69808,2.72948 1.79194,5.24182 2.76335,6.34679 0.29851,0.33955 0.40344,0.61736 0.23318,0.61736 -0.56174,0 1.31667,1.14785 2.97815,1.81987 2.1883,0.88511 5.10181,0.66674 7.63409,-0.57219 z m 5.11813,-27.7336 c -1.53362,-5.9119 -1.34373,-5.55205 -3.48127,-6.59713 -2.20682,-1.07895 -3.45945,-2.49766 -3.0795,-3.4878 0.22553,-0.58772 0.30431,-0.56747 0.92242,0.23704 0.84814,1.10393 0.88774,1.64716 0.0741,1.01711 -0.50259,-0.3892 -0.49242,-0.33165 0.0547,0.30958 0.71056,0.83282 1.12535,1.0599 0.71079,0.38913 -0.13547,-0.2192 -0.10515,-0.33138 0.0674,-0.24928 0.17253,0.0821 1.05752,0.48954 1.96666,0.90543 0.90913,0.41589 1.8956,1.12648 2.19217,1.5791 0.61312,0.93575 2.12359,6.95243 1.82128,7.25475 -0.1091,0.10909 -0.2008,-0.0265 -0.20377,-0.30141 -0.005,-0.42987 -0.0498,-0.42962 -0.32285,0.002 -0.23288,0.36795 -0.42528,0.086 -0.72213,-1.05833 z m 0.58581,-0.39134 c -0.11261,-0.28142 -0.19621,-0.19783 -0.21314,0.21314 -0.0153,0.37188 0.0681,0.58024 0.18529,0.46302 0.11723,-0.11723 0.12976,-0.4215 0.0279,-0.67616 z m -1.60832,-5.31959 c -0.34841,-0.34582 -0.38893,-0.3053 -0.19749,0.19748 0.13248,0.34792 0.32974,0.54371 0.43836,0.43509 0.10861,-0.10861 2.2e-4,-0.39327 -0.24087,-0.63257 z m -17.80438,29.78782 c -0.70886,-0.78328 -0.77636,-1.36492 -0.0925,-0.79739 0.35077,0.2911 0.25598,-0.37772 -0.33136,-2.33806 -0.45247,-1.51019 -0.91888,-3.34111 -1.03646,-4.06872 -0.19101,-1.18197 -0.32483,-1.32291 -1.25613,-1.32291 -0.57329,0 -1.04235,0.16376 -1.04235,0.3639 0,1.53005 3.27037,8.80832 3.95787,8.80832 0.21165,0 0.12208,-0.29031 -0.19903,-0.64514 z m 26.22727,-4.09749 c 25.96235,-6.62842 46.32119,-26.61555 53.09374,-52.12434 0.77721,-2.92737 2.43942,-12.63016 2.19755,-12.82773 -0.0449,-0.0367 -0.95469,0.0606 -2.02184,0.21606 -1.06714,0.15547 -5.85522,0.29427 -10.64015,0.30844 l -8.69986,0.0257 -1.94732,4.0497 c -3.37406,7.01679 -8.38944,13.43401 -14.48061,18.52808 l -2.32006,1.94028 -0.006,5.88886 -0.006,5.88887 4.36627,0.10836 4.36628,0.10835 -6.5e-4,-0.82384 c -3.6e-4,-0.45311 0.35139,-1.3 0.78166,-1.88197 l 0.78231,-1.05814 -0.7944,0.42516 c -1.0481,0.56092 -3.86777,0.21592 -5.77291,-0.70634 -0.81503,-0.39455 -1.81927,-0.71737 -2.23163,-0.71737 -1.27085,0 -1.25745,-0.67102 0.0452,-2.2607 2.28792,-2.79211 5.55453,-3.4397 8.1078,-1.60734 l 1.10981,0.79646 -1.12489,-1.19824 c -1.98347,-2.11279 -2.36844,-4.3082 -1.20474,-6.87041 1.24786,-2.74751 3.36291,-3.62889 5.53286,-2.30565 1.68081,1.02495 2.36155,2.827 2.20901,5.84766 -0.10798,2.13841 -0.28883,2.75846 -1.12389,3.85329 -0.58764,0.77043 -1.40605,1.38695 -1.99842,1.50542 -0.68562,0.13712 -0.94147,0.36153 -0.80819,0.70886 0.10726,0.27952 -0.18225,0.9367 -0.64336,1.46041 l -0.83838,0.95219 0.99454,-0.87818 0.99455,-0.87817 1.91587,1.99368 c 2.05757,2.14113 2.32667,3.06026 1.41316,4.82678 -1.07058,2.07029 -4.50807,2.50299 -6.2272,0.78386 -0.56716,-0.56716 -1.0312,-0.88466 -1.0312,-0.70556 0,0.18164 -1.95008,0.32564 -4.40972,0.32564 h -4.40972 l -0.005,7.67292 c -0.003,4.22011 -0.1227,7.85728 -0.26607,8.08262 -0.36532,0.57417 -5.41703,3.03903 -8.37158,4.08471 -2.08733,0.73875 -5.39143,1.60293 -8.49698,2.22236 -0.57319,0.11433 -0.83659,0.59693 -1.1915,2.18306 -0.25061,1.11995 -0.53176,2.23472 -0.6248,2.47725 -0.22453,0.58534 -0.10161,0.57167 3.78689,-0.4211 z m 30.86806,-31.38592 c -0.58209,-0.25871 -1.4538,-0.8988 -1.93716,-1.42242 l -0.87885,-0.95203 1.82276,-1.73878 c 1.73104,-1.6513 1.92032,-1.73878 3.76218,-1.73878 1.56297,0 2.14646,0.1742 3.00599,0.89744 1.29793,1.09214 1.58621,1.89187 1.12203,3.11275 -0.76957,2.02413 -4.34093,2.97785 -6.89695,1.84182 z m 5.10701,-1.20338 c 1.23773,-0.91967 1.35003,-2.32999 0.24327,-3.05516 -2.06083,-1.35031 -4.34089,-0.97711 -6.20205,1.01515 -0.82952,0.88795 -0.83488,0.93043 -0.20508,1.62635 1.34184,1.48272 4.44482,1.69096 6.16386,0.41366 z m -66.81285,30.55361 c -0.37686,-2.50384 -0.40301,-2.55022 -1.61777,-2.86808 -4.76204,-1.24607 -11.59163,-4.07359 -13.14098,-5.44051 -0.55227,-0.48724 -0.61736,-1.35198 -0.61736,-8.20196 v -7.6573 l -1.85208,-0.22246 c -1.01865,-0.12235 -4.15396,-0.25423 -6.96736,-0.29305 -4.99198,-0.0689 -5.0345,-0.0759 -1.76389,-0.28832 l 3.35139,-0.21773 -3.35139,-0.12683 c -3.96437,-0.15002 -2.87995,-0.29516 4.7625,-0.6374 l 5.64444,-0.25276 0.0984,-4.67431 c 0.10882,-5.16758 0.2242,-5.37182 2.22836,-3.94473 l 1.0246,0.72958 v 11.76851 11.7685 l 2.32046,1.09637 c 2.1616,1.0213 6.10238,2.42105 8.35107,2.96625 l 0.97014,0.23521 v -35.31944 -35.31944 l -1.45221,-4.28659 c -1.90146,-5.61266 -2.19899,-9.404851 -1.0283,-13.106031 1.69827,-5.36912 2.0461,-6.79322 1.76877,-7.24194 -0.36939,-0.59769 -1.74887,0.25501 -2.87356,1.77624 -0.83815,1.13366 -1.70637,1.39594 -1.70637,0.51548 0,-1.05573 0.98745,-2.88031 1.98231,-3.66287 0.94331,-0.74201 1.0097,-0.96081 1.01289,-3.33792 0.002,-1.84803 0.17654,-2.80811 0.63635,-3.50988 0.61431,-0.93757 0.53928,-0.91897 -2.54897,0.63205 -1.75006,0.87893 -3.4396,1.99132 -3.75455,2.47199 -1.13988,1.73968 -3.12624,10.75766 -4.35362,19.765181 -1.52499,11.19171 -1.84976,15.82232 -2.04246,29.12168 l -0.19194,13.24667 0.90787,1.04083 c 0.90638,1.03912 0.90968,1.03982 2.01275,0.42347 0.60768,-0.33955 1.31163,-0.61737 1.56431,-0.61737 0.54802,0 0.88308,1.0961 0.88969,2.91042 0.004,1.09998 -0.11704,1.32292 -0.71826,1.32292 -0.92716,0 -2.45145,-0.78883 -3.26818,-1.6913 -0.50307,-0.55589 -0.93237,-0.66574 -2.02763,-0.51883 l -1.38945,0.18636 -0.0494,-4.0152 c -0.0671,-5.45699 -0.13082,-6.15541 -0.78973,-8.65223 -0.31462,-1.19218 -0.59045,-2.54155 -0.61295,-2.99861 -0.0341,-0.69225 -0.0699,-0.71752 -0.21426,-0.15136 -0.0953,0.37382 -0.48168,0.92945 -0.85855,1.23473 -0.67233,0.5446 -0.6651,0.59156 0.38425,2.49533 1.12731,2.0452 1.32514,2.98324 0.70943,3.36378 -0.83273,0.51465 -2.12632,-0.28448 -3.44784,-2.12997 -1.16938,-1.63301 -1.45431,-1.85539 -1.81714,-1.4182 -0.60038,0.72341 -2.71476,1.05976 -3.64572,0.57996 -0.68568,-0.35339 -0.64652,-0.37505 0.3552,-0.1965 1.18525,0.21127 2.57833,-0.30915 2.57833,-0.9632 0,-0.39682 -1.66818,-0.24795 -2.96829,0.2649 -0.42976,0.16952 -0.59401,0.13493 -0.45181,-0.0952 0.12288,-0.19883 1.1808,-0.71058 2.35093,-1.13723 1.17012,-0.42665 2.1275,-0.89085 2.1275,-1.03155 0,-0.1407 -0.95085,-1.72614 -2.113,-3.5232 -1.87868,-2.90505 -2.18907,-3.22667 -2.79903,-2.90023 -0.99594,0.53301 -2.48673,0.44982 -2.71753,-0.15164 -0.10949,-0.28534 0.13605,-0.94484 0.54564,-1.46556 0.69262,-0.88052 0.70433,-0.9914 0.16737,-1.58473 -0.75083,-0.82966 -0.44784,-1.54476 0.9638,-2.27475 1.02154,-0.52826 1.18008,-0.53301 1.53615,-0.0461 0.21838,0.29865 0.70606,0.51573 1.08374,0.48241 0.46234,-0.0408 0.72273,0.19231 0.797,0.71348 0.0832,0.58349 -0.19578,0.9311 -1.13299,1.41192 -0.88471,0.45389 -1.15836,0.77532 -0.94876,1.11445 0.23299,0.37699 0.45608,0.39014 1.06752,0.0629 0.8802,-0.47108 1.60735,-0.0729 1.9735,1.08077 0.45186,1.42367 3.18171,5.84061 3.53632,5.7218 0.63258,-0.21193 -2.67948,-6.4846 -3.61096,-6.83874 -0.93805,-0.35665 -0.93185,-0.33652 -0.47417,-1.54031 0.18923,-0.4977 0.5851,-0.90491 0.87973,-0.90491 0.75639,0 2.40647,2.40439 3.3119,4.82588 0.42226,1.12931 1.17327,2.52954 1.66891,3.11162 l 0.90115,1.05833 -0.1191,-3.70859 c -0.10339,-3.21954 -0.25156,-3.97935 -1.12366,-5.76185 -1.17023,-2.39188 -2.52529,-3.78023 -4.98103,-5.10342 l -1.76389,-0.95041 -0.10038,-6.34897 c -0.0552,-3.49194 -0.017,-6.68822 0.0849,-7.10285 0.12874,-0.523831 0.56008,-0.824191 1.41351,-0.984291 1.0844,-0.20344 1.27288,-0.40432 1.60963,-1.71557 2.50362,-9.74871 4.08936,-13.08136 8.86391,-18.62882 2.27127,-2.63894 6.7718,-6.30355 9.89435,-8.05657 1.86518,-1.04713 2.02717,-1.2406 2.24285,-2.67885 0.28647,-1.91035 0.0786,-7.065075 -0.30026,-7.443885 -0.49547,-0.495474 -7.45839,3.269622 -11.04992,5.975085 -3.55009,2.67425 -9.40176,8.46144 -11.93141,11.79996 -1.78313,2.35328 -2.11508,2.10864 -0.3924,-0.2892 0.71742,-0.9986 1.13148,-1.70876 0.92012,-1.57814 -0.67752,0.41874 -3.95263,5.50251 -5.37277,8.33985 -1.54922,3.09525 -2.76131,6.33089 -2.76131,7.37124 0,0.2269 -3.57217,0.35278 -10.01097,0.35278 -8.430168,0 -10.079727,0.0828 -10.446409,0.52468 -0.239492,0.28857 -0.343288,0.76482 -0.230656,1.05833 0.175505,0.45736 1.511587,0.53366 9.344885,0.53366 10.08639,0 10.07753,-0.002 9.86792,2.18181 l -0.11227,1.16958 -7.76111,0.17012 -7.761108,0.17013 8.290278,0.18265 8.29028,0.18265 0.0945,8.794731 c 0.0731,6.80069 -0.007,8.8591 -0.35278,9.07863 -0.246,0.15614 -4.42214,0.28633 -9.28032,0.2893 -7.965961,0.005 -8.961191,-0.0599 -10.138444,-0.66013 -0.717968,-0.36604 -1.217014,-0.52252 -1.10899,-0.34774 0.108023,0.17479 0.860323,0.66965 1.671776,1.09969 1.35226,0.71665 2.10712,0.79718 9.046338,0.9651 l 7.57098,0.1832 0.21931,1.05834 c 0.26859,1.29609 1.26019,3.28465 2.11096,4.23333 0.348,0.38805 1.15608,1.89618 1.79573,3.35139 2.32585,5.29136 5.55143,9.84659 10.6908,15.09776 1.95533,1.99786 3.59641,3.67954 3.64684,3.73706 0.0504,0.0575 -0.26707,0.49495 -0.70556,0.97205 -2.42828,2.64211 -2.69295,3.23015 -2.48517,5.5216 0.3538,3.90181 -0.86696,4.65235 -7.5725,4.65567 -2.18281,0.001 -3.96875,0.1339 -3.96875,0.29514 0,0.16124 0.41042,0.51281 0.91205,0.78127 2.15705,1.15442 2.66555,4.80658 1.05247,7.55908 -0.98466,1.68019 -2.04837,2.48128 -2.87403,2.16444 -0.77971,-0.2992 -0.61237,-0.8008 0.90951,-2.72613 1.92344,-2.43333 1.91867,-3.71258 -0.0221,-5.91571 -0.78825,-0.89482 -1.58826,-1.82539 -1.77779,-2.06792 -0.23998,-0.30708 -1.57221,-0.44098 -4.38766,-0.44098 -3.80785,0 -4.04303,-0.041 -4.04303,-0.70555 0,-0.68784 0.23518,-0.70556 9.36465,-0.70556 h 9.36464 l 0.86591,-0.86591 c 1.27652,-1.27651 1.18501,-3.07766 -0.21995,-4.32949 -0.90048,-0.80232 -1.05023,-1.1491 -0.87713,-2.03119 0.1148,-0.58503 0.5173,-1.48467 0.89444,-1.99921 l 0.68571,-0.93552 -2.02239,-2.23948 c -4.71362,-5.21959 -7.63047,-9.30333 -10.13803,-14.19375 l -1.82946,-3.56795 -9.78729,-0.0939 -9.787299,-0.0938 0.237822,1.32857 c 2.429701,13.57327 7.654534,25.72247 15.793027,36.72323 8.0608,10.89574 21.40652,20.05941 37.14285,25.50366 2.13431,0.7384 3.89418,1.34804 3.91083,1.35475 0.0166,0.007 -0.14211,-1.13304 -0.35278,-2.53278 z m -36.67439,-38.89586 c 0.16821,-0.43835 0.12173,-0.57524 -0.14032,-0.41329 -0.38162,0.23586 -0.36567,-0.2444 0.11578,-3.48705 0.2127,-1.43258 1.89869,-3.40863 3.91796,-4.592 l 1.65267,-0.96853 0.64415,0.79549 c 0.81393,1.00516 0.80689,2.27143 -0.0226,4.06872 -0.80194,1.73757 -1.9112,2.78713 -3.74777,3.54608 -0.77346,0.31962 -1.69094,0.83423 -2.03884,1.14358 -0.58521,0.52036 -0.61372,0.5134 -0.38102,-0.093 z m 2.44679,-2.03173 c 0.1204,-0.12041 -0.0292,-0.18252 -0.33236,-0.13802 -0.30321,0.0445 -0.6498,0.17943 -0.77021,0.29984 -0.12041,0.12041 0.0292,0.18251 0.33236,0.13801 0.3032,-0.0445 0.6498,-0.17942 0.77021,-0.29983 z m 1.43362,-4.28482 0.894,-1.7199 -1.05887,0.75398 c -1.27541,0.90817 -2.87652,2.75755 -2.88319,3.33024 -0.003,0.22765 -0.0936,0.81078 -0.20205,1.29585 -0.17496,0.78229 -0.053,0.7225 1.07943,-0.52917 0.70217,-0.77611 1.67897,-2.18506 2.17068,-3.131 z m 1.74824,0.66156 c 0.20713,-0.88701 0.037,-0.74957 -1.0508,0.84904 -1.83255,2.69301 -1.87751,2.83504 -0.45712,1.44402 0.69343,-0.6791 1.372,-1.71098 1.50792,-2.29306 z m 1.02935,-26.24681 c 1.02882,-0.22763 1.05657,-0.28797 0.99516,-2.16312 l -0.0632,-1.92896 0.44933,1.5875 c 0.57996,2.04907 0.21035,2.83627 -1.30553,2.78048 l -1.13411,-0.0417 z m 0.54068,-14.60474 c -0.006,-0.34918 0.23832,-1.118 0.54367,-1.708481 0.64314,-1.24369 0.58347,-1.34851 -0.97825,-1.71837 l -1.16443,-0.27577 1.33399,-0.0361 c 1.72626,-0.0467 1.95559,0.5668 1.01171,2.706771 -0.40435,0.91676 -0.74037,1.38114 -0.74669,1.03196 z m -1.7754,-9.436681 c -0.87312,-0.35739 -1.38396,-0.65842 -1.13519,-0.66898 0.57135,-0.0242 2.89908,0.93729 2.89908,1.19754 0,0.10691 -0.0397,0.17793 -0.0882,0.15781 -0.0485,-0.0201 -0.80257,-0.32899 -1.67569,-0.68637 z m 6.89538,-10.56594 c 1.46288,-2.71871 7.51821,-8.90823 11.44907,-11.70279 2.36512,-1.68144 5.66208,-3.6272 4.40972,-2.60248 -0.38806,0.31752 -0.70912,0.76891 -0.71347,1.00309 -0.004,0.23419 -0.2981,0.37548 -0.65277,0.314 -0.35466,-0.0615 -0.55108,0.0399 -0.43649,0.22534 0.1146,0.18541 -0.38541,0.7827 -1.11112,1.32729 -0.72572,0.5446 -2.50273,2.11007 -3.94892,3.47884 l -2.62944,2.48865 1.57075,-1.94027 c 1.49863,-1.85119 1.42094,-1.80438 -1.69209,1.01958 -1.79456,1.62793 -3.26995,3.05668 -3.27865,3.175 -0.009,0.11833 -0.7438,1.00889 -1.63357,1.97903 -0.88976,0.97014 -1.48962,1.52576 -1.33302,1.23472 z m 10.74351,-10.05417 c 0.4557,-0.48507 0.74917,-0.88194 0.65216,-0.88194 -0.097,0 -0.54924,0.39687 -1.00494,0.88194 -0.45569,0.48507 -0.74917,0.88195 -0.65215,0.88195 0.097,0 0.54923,-0.39688 1.00493,-0.88195 z m 1.80889,-1.4993 c 0.43881,-0.55953 0.42633,-0.57201 -0.13319,-0.1332 -0.58764,0.46086 -0.77452,0.75056 -0.48417,0.75056 0.0733,0 0.35107,-0.27781 0.61736,-0.61736 z m 12.18308,114.476391 c -0.0979,-0.24253 -0.17793,-0.0441 -0.17793,0.44098 0,0.48506 0.0801,0.6835 0.17793,0.44097 0.0979,-0.24254 0.0979,-0.63941 0,-0.88195 z m 11.849,-0.84727 2.38125,-0.22489 v -14.36015 -14.36014 l -1.68902,-1.04996 c -1.931,-1.20037 -3.82393,-3.83862 -4.96365,-6.91805 -1.64813,-4.45307 -0.78236,-5.75071 3.64716,-5.46644 l 2.62274,0.16832 0.12368,-25.61064 0.12367,-25.610641 0.93512,-4.05695 c 0.51431,-2.23132 1.3371,-5.80319 1.8284,-7.9375 1.19055,-5.17191 1.1506,-5.66128 -0.27189,-3.33064 -0.64436,1.05574 -2.20458,3.50703 -3.46716,5.44731 -1.26258,1.94027 -2.75943,4.36105 -3.32635,5.3795 -1.77428,3.18746 -2.39595,2.45011 -4.2381,-5.02673 l -0.78226,-3.175 -0.0713,1.94028 c -0.0392,1.06716 -0.065,24.427291 -0.0573,51.911411 0.0112,39.70041 -0.0775,50.09631 -0.43132,50.58019 -0.41845,0.57227 -0.64616,0.57484 -3.76874,0.0426 -4.65319,-0.79317 -10.5729,-2.85289 -13.11297,-4.56256 l -0.97014,-0.65298 V 164.9834 c 0,-9.92054 -0.0795,-11.78681 -0.50927,-11.95172 -0.61612,-0.23643 -0.78454,4.32309 -0.61903,16.75886 l 0.10642,7.99587 2.78761,1.45027 c 7.15039,3.72004 15.11551,5.18958 23.72246,4.3767 z m -8.1982,-55.42079 c 0.002,-29.249691 0.1022,-53.816251 0.22235,-54.592361 l 0.21847,-1.41111 -1.47574,1.41111 c -1.8051,1.72604 -3.40046,4.18862 -3.72896,5.75594 -0.26476,1.26323 0.20632,2.78452 1.35181,4.36552 0.88327,1.2191 0.68425,3.75431 -0.64552,8.22298 -1.19674,4.02162 -1.06028,6.88255 0.58053,12.170841 l 1.14931,3.70417 0.1061,36.33611 c 0.0583,19.98486 0.17936,36.53455 0.26892,36.77708 0.0895,0.24254 0.56468,0.44098 1.05584,0.44098 h 0.89301 z m -2.94206,17.0982 -0.23056,-35.73028 -1.25718,-4.39819 c -0.72078,-2.52163 -1.34399,-5.617331 -1.46065,-7.255541 -0.17868,-2.50911 -0.0688,-3.33003 0.90127,-6.73597 1.23583,-4.33885 1.36101,-5.93522 0.55558,-7.08514 -0.5706,-0.81463 -1.21472,-1.04332 -1.21472,-0.43127 0,0.19402 0.22114,0.35277 0.49142,0.35277 1.31989,0 1.20157,2.41697 -0.35238,7.19841 -1.18181,3.63636 -1.25905,4.13938 -1.08856,7.08909 0.14426,2.495661 0.47305,3.967581 1.53666,6.879171 l 1.35313,3.70417 0.0947,36.07153 c 0.0703,26.78527 0.19858,36.07153 0.49828,36.07153 0.3018,0 0.34544,-9.01164 0.17304,-35.73028 z m 30.66891,35.0104 0.84427,-0.32099 v -12.54371 -12.54371 l -0.79375,-0.3161 c -0.63317,-0.25216 -0.95191,-0.14164 -1.57555,0.54631 -1.63291,1.80129 -1.86403,3.69109 -1.86403,15.24165 v 10.73495 l 1.27238,-0.2387 c 0.69981,-0.13129 1.65231,-0.38315 2.11668,-0.5597 z m 1.81335,-13.12665 c -0.061,-2.37684 -0.11097,-0.43215 -0.11097,4.32153 0,4.75368 0.0499,6.69837 0.11097,4.32153 0.061,-2.37684 0.061,-6.26622 0,-8.64306 z m 6.35909,10.30471 2.91845,-1.35883 -0.0962,-6.45731 -0.0962,-6.45732 h -4.05695 -4.05694 l -0.0946,8.17542 -0.0946,8.17543 1.32935,-0.35928 c 0.73114,-0.19761 2.64265,-0.97076 4.2478,-1.71811 z m -72.23928,-11.80401 c 0.4557,-0.48507 0.74917,-0.88195 0.65215,-0.88195 -0.097,0 -0.54923,0.39688 -1.00493,0.88195 -0.4557,0.48506 -0.74917,0.88194 -0.65215,0.88194 0.097,0 0.54923,-0.39688 1.00493,-0.88194 z m 90.73488,-5.02709 0.071,-2.73403 0.1193,2.68245 c 0.11637,2.61651 0.14013,2.67847 0.96623,2.52055 1.2013,-0.22964 2.06507,-1.32321 2.06507,-2.61445 0,-0.84963 -0.35297,-1.43577 -1.52037,-2.52471 l -1.52038,-1.41819 -1.53702,1.62678 c -0.84538,0.89473 -1.53704,1.96573 -1.53704,2.38001 0,0.77689 1.76842,2.81562 2.4423,2.81562 0.23259,0 0.40746,-1.06029 0.45091,-2.73403 z m -89.08278,0.90399 c -0.11262,-0.28142 -0.19621,-0.19782 -0.21314,0.21314 -0.0153,0.37189 0.0681,0.58025 0.18529,0.46302 0.11722,-0.11722 0.12975,-0.42149 0.0279,-0.67616 z m 64.22023,-3.19073 c -0.0785,-0.63406 -0.14437,-0.20034 -0.14635,0.96382 -0.002,1.16417 0.0623,1.68295 0.14275,1.15285 0.0805,-0.5301 0.0821,-1.4826 0.004,-2.11667 z m 22.32606,-1.69813 c 0.29321,-0.14922 0.82598,-0.59492 1.18394,-0.99045 0.64081,-0.70809 0.62547,-0.73703 -0.99917,-1.88475 -0.90749,-0.6411 -2.07256,-1.28085 -2.58902,-1.42168 -1.49806,-0.40848 -3.61136,0.35953 -4.91969,1.7879 l -1.18189,1.29033 0.98775,0.20335 c 0.54327,0.11184 1.38462,0.41906 1.86969,0.6827 1.75121,0.95181 4.15364,1.09328 5.64839,0.3326 z m -38.69592,-2.25493 c 0.81065,-0.47296 2.85301,-1.35749 4.53856,-1.96562 1.68555,-0.60813 3.2528,-1.3324 3.48278,-1.60951 0.57265,-0.69 1.62761,-0.63173 2.74674,0.15172 0.51501,0.36054 1.33328,0.85421 1.81834,1.09704 0.67276,0.33678 0.58909,0.1847 -0.35278,-0.6412 -0.6791,-0.59549 -1.35379,-1.08916 -1.49931,-1.09704 -0.70837,-0.0384 -0.13173,-1.49088 0.90618,-2.28252 1.85259,-1.41304 3.89936,-1.96239 7.42845,-1.99381 3.01893,-0.0269 3.15312,-0.0588 2.16051,-0.51325 -0.58207,-0.26653 -1.81239,-0.49176 -2.73403,-0.50051 -2.02464,-0.0192 -2.18626,-0.58192 -0.56013,-1.95022 l 1.11557,-0.93868 -0.60377,-10.11698 c -0.33208,-5.56434 -0.68159,-10.48707 -0.7767,-10.93939 -0.15294,-0.72735 -0.32423,-0.80073 -1.48193,-0.63486 -2.90565,0.41632 -6.24165,0.56206 -5.54234,0.24214 0.67539,-0.30898 0.67665,-0.32384 0.0294,-0.34758 -1.39375,-0.0511 -0.19355,-0.39764 4.32833,-1.24972 9.866,-1.85909 14.86866,-4.15495 14.86866,-6.82363 0,-3.43998 -5.84942,-19.516981 -8.64574,-23.762631 -1.5723,-2.38722 -7.88903,-6.24336 -11.19801,-6.83597 l -1.32291,-0.23692 v 1.45037 1.45037 h 1.91467 c 1.64826,0 2.0164,0.12933 2.64584,0.92952 0.86215,1.09607 0.90619,2.32662 0.23183,6.47882 -0.26787,1.64923 -0.59998,4.99302 -0.73804,7.43064 l -0.25101,4.432031 0.92509,0.60614 c 0.90803,0.59497 0.93152,0.58925 1.27335,-0.30986 0.19155,-0.5038 0.34827,-1.28555 0.34827,-1.73723 0,-0.90068 0.89593,-1.47598 1.17323,-0.75337 0.0953,0.24838 0.28549,1.3496 0.42262,2.44717 0.24284,1.94358 0.22713,1.99559 -0.60271,1.99559 -0.46861,0 -1.04253,-0.15875 -1.27536,-0.35278 -0.30788,-0.25657 -0.32712,-0.23732 -0.0706,0.0706 0.19403,0.23283 0.35278,1.03879 0.35278,1.79102 0,3.11835 -3.79409,4.62915 -6.02436,2.39889 -0.81475,-0.81474 -1.03119,-1.34447 -1.03119,-2.52363 0,-1.28888 0.19246,-1.67013 1.4111,-2.79517 l 1.41111,-1.30273 v -4.333631 c 0,-2.38349 0.25045,-5.90894 0.55656,-7.83434 0.67356,-4.23659 0.5338,-4.53546 -2.09905,-4.48915 -1.63809,0.0288 -1.70808,0.0611 -0.74126,0.34241 l 1.06763,0.31061 -0.12479,3.80272 c -0.0686,2.09149 -0.27542,4.39081 -0.45954,5.10959 -1.06695,4.165111 -5.94903,5.394581 -8.75065,2.20371 -0.95532,-1.08805 -1.08791,-1.4921 -1.06915,-3.25828 0.0118,-1.1089 0.30018,-3.44494 0.64091,-5.19119 0.57279,-2.93557 0.68651,-3.183 1.50809,-3.28103 1.20562,-0.14386 1.99516,0.80336 1.42741,1.71247 -0.22917,0.36696 -0.72507,2.05118 -1.10197,3.74271 -0.59604,2.67498 -0.6233,3.22385 -0.20933,4.21464 0.88351,2.11453 2.71112,2.46908 4.49889,0.87276 1.14126,-1.01907 1.1532,-1.06295 1.26976,-4.67431 l 0.11768,-3.64558 -1.08441,-0.40904 c -1.97521,-0.74505 -2.28404,-3.64147 -0.53497,-5.01729 0.88572,-0.69671 1.20137,-2.60814 0.50208,-3.04033 -0.60818,-0.37588 -0.38477,-1.29241 0.36267,-1.48787 0.45145,-0.11806 0.65613,-0.39877 0.55468,-0.76073 -0.0884,-0.31549 -0.2661,-1.40407 -0.39486,-2.41906 -0.27828,-2.19376 -0.90974,-3.06944 -3.80946,-5.28279 -1.19959,-0.91565 -1.94295,-1.36855 -1.65192,-1.00644 0.96433,1.19979 0.64548,5.70926 -0.84952,12.01522 -2.38009,10.0392 -2.32266,9.13812 -2.32414,36.461731 l -9.9e-4,24.82006 0.88193,0.69374 c 1.29907,1.02185 1.09332,1.46837 -0.97014,2.10532 l -1.85208,0.5717 2.14879,0.0411 c 1.18184,0.0226 2.91638,0.2721 3.85456,0.55444 1.93658,0.58283 5.46193,2.87301 5.46193,3.54825 0,0.53006 -1.85931,1.31839 -4.97884,2.11097 -3.93054,0.99864 -4.54615,1.29501 -4.54615,2.18857 0,1.00837 0.0684,1.00658 1.87745,-0.0489 z m 7.01456,-5.69059 c -0.43447,-0.30431 -0.69967,-0.69937 -0.58933,-0.8779 0.11034,-0.17853 -0.006,-0.2468 -0.25869,-0.15171 -0.71531,0.26926 -4.25027,-2.03176 -5.1336,-3.34162 -1.10023,-1.6315 -1.05685,-3.93394 0.11856,-6.29268 0.8313,-1.66822 2.40222,-3.24667 3.23115,-3.24667 0.18172,0 0.53956,0.91281 0.79521,2.02847 l 0.46484,2.02847 0.61009,-2.01717 c 0.74111,-2.45035 2.42715,-5.21328 3.18186,-5.21414 0.72483,-8.3e-4 2.09577,2.47272 2.80563,5.06212 l 0.56586,2.06414 0.44002,-1.46866 c 0.53789,-1.7953 1.13074,-1.77563 2.63764,0.0875 1.44545,1.78718 1.7289,5.07876 0.59328,6.88946 -0.77658,1.2382 -4.30672,3.10756 -5.02734,2.6622 -0.22088,-0.13652 -0.28275,-0.0741 -0.14593,0.1473 0.29815,0.48243 -1.89972,2.19417 -2.81734,2.19417 -0.37507,0 -1.03742,-0.24899 -1.47191,-0.55331 z m 3.87366,-1.48267 c -0.35161,-0.1172 -0.30937,-0.33426 0.17734,-0.91103 0.63871,-0.7569 0.63865,-0.75694 -0.13261,-0.10524 -0.42433,0.35856 -0.90058,0.57366 -1.05832,0.478 -0.15775,-0.0957 -0.51393,0.0715 -0.79149,0.37152 -0.44772,0.48388 -0.39758,0.52497 0.44405,0.36408 0.8182,-0.1564 0.88763,-0.10725 0.50468,0.35723 -0.39343,0.47718 -0.3436,0.48504 0.43694,0.069 0.56138,-0.29925 0.71354,-0.52546 0.41941,-0.62351 z m -3.0643,0.0168 c -0.38806,-0.0954 -0.94368,-0.35478 -1.23472,-0.57643 -0.46023,-0.35051 -0.46609,-0.32258 -0.045,0.21435 0.26629,0.33955 0.82191,0.59894 1.23472,0.57644 0.71288,-0.0389 0.71514,-0.0496 0.045,-0.21436 z m 0.48743,-1.59681 c -0.23064,-0.43656 -0.86431,-1.33746 -1.40815,-2.00201 -0.55241,-0.67501 -1.41775,-2.58426 -1.96073,-4.32606 -0.53453,-1.71479 -1.13676,-3.06337 -1.33828,-2.99685 -0.2015,0.0665 -0.82747,0.86504 -1.39103,1.77447 -1.86177,3.00443 -1.28618,5.77353 1.54471,7.43119 1.06201,0.62187 1.17744,0.62875 1.47996,0.0882 0.42889,-0.76639 0.86875,-0.73963 1.96067,0.11927 1.18228,0.92998 1.63193,0.89435 1.11286,-0.0882 z m 7.62385,-2.02341 c 0.79202,-1.53161 0.65805,-3.43176 -0.36504,-5.17754 -0.83412,-1.42331 -1.57263,-1.98249 -1.57263,-1.19075 0,0.93932 -1.6155,4.46029 -2.69591,5.87569 -1.52976,2.00412 -1.51069,3.06756 0.0332,1.85061 0.5728,-0.4515 0.929,-0.63895 0.79155,-0.41656 -0.13744,0.22239 -0.0505,0.47146 0.19329,0.55349 0.35505,0.1195 0.35532,0.25561 9.9e-4,0.68457 -0.29269,0.35477 0.15276,0.2509 1.32031,-0.30787 1.08344,-0.51852 1.96685,-1.23932 2.29382,-1.87164 z m -6.62473,1.31786 c -0.0879,-0.24254 0.0723,-0.70774 0.35584,-1.0338 0.46332,-0.5327 0.44319,-0.57388 -0.19851,-0.40608 -0.54701,0.14305 -0.69029,0.0341 -0.61228,-0.4655 0.056,-0.35874 0.0336,-0.45382 -0.0498,-0.21129 -0.0834,0.24254 -0.29134,0.44097 -0.46213,0.44097 -0.17077,0 -0.0401,0.47525 0.29046,1.05611 0.61855,1.08702 0.95856,1.39848 0.67639,0.61959 z m 1.70646,-3.95742 c 0.70224,-1.6807 0.64069,-3.3428 -0.20772,-5.6104 -1.13013,-3.02056 -1.49584,-3.09077 -2.77418,-0.53258 -0.77644,1.55381 -1.09305,2.68871 -1.09305,3.91813 0,1.75482 0.5935,3.4496 1.00806,2.87854 0.12466,-0.17173 0.56868,-0.50255 0.98669,-0.73515 0.67471,-0.37542 0.7844,-0.3259 0.97687,0.44097 0.29062,1.15789 0.49748,1.09049 1.10333,-0.35951 z m 31.69249,11.48852 c 2.39196,-2.02453 1.99435,-7.93584 -0.60734,-9.02978 -1.95608,-0.82246 -3.72306,0.39904 -4.50098,3.11149 -0.4619,1.61052 0.22499,3.60887 1.8443,5.36561 1.47144,1.59633 1.93769,1.67527 3.26402,0.55268 z m -27.30077,0.53572 c 0,-0.0744 -0.39207,-0.21021 -0.87127,-0.30182 -0.47921,-0.0916 -0.78733,-0.0307 -0.68474,0.13527 0.18065,0.29229 1.55601,0.43951 1.55601,0.16655 z m -16.56315,-0.69121 c 0.49464,-0.25814 1.44714,-0.55846 2.11667,-0.66738 1.90823,-0.31042 5.27425,-1.35173 5.27425,-1.63164 0,-0.13927 -0.83344,-0.75563 -1.85208,-1.36971 -2.04009,-1.22983 -5.92192,-2.04634 -8.02569,-1.68813 -2.68437,0.45707 -3.175,0.60989 -3.175,0.98893 0,0.7341 1.90527,3.14837 3.15451,3.99726 1.45311,0.98741 1.35372,0.97272 2.50734,0.37067 z m 20.97287,-0.53725 c 1.33767,-0.60922 4.05694,-3.21741 4.05694,-3.89122 0,-0.87877 -4.95092,-1.36285 -7.82754,-0.76534 -1.96193,0.40752 -4.16295,1.5789 -4.41557,2.34996 -0.17742,0.54151 2.64268,2.34356 4.12923,2.63858 1.98822,0.39459 2.5653,0.34737 4.05694,-0.33198 z m -59.26917,-2.86557 c 0.12359,-0.19998 -0.018,-0.25912 -0.33196,-0.13865 -0.61116,0.23453 -0.72298,0.48739 -0.21553,0.48739 0.18258,0 0.42895,-0.15693 0.54749,-0.34874 z m 1.27436,-2.13965 c 1.4969,-0.76367 1.65996,-1.49239 0.3762,-1.68129 -0.49532,-0.0729 -0.76612,0.0739 -0.76612,0.41537 0,0.29045 -0.41828,0.85712 -0.92952,1.25926 -1.19043,0.93639 -0.50973,0.93983 1.31944,0.007 z m 63.52938,-1.59185 c 0.55003,-1.60719 0.55162,-1.77439 0.0208,-2.18157 -1.11273,-0.85348 -5.4037,-0.39259 -6.96346,0.74794 -0.61237,0.44777 -0.54494,0.49163 0.78411,0.50997 1.75479,0.0242 3.40934,0.82267 4.19757,2.02566 0.79311,1.21042 1.25928,0.94845 1.96101,-1.102 z m 11.343,-5.16742 c 3.49284,-3.93982 5.88434,-7.55583 8.033,-12.14615 0.98598,-2.10639 1.9757,-3.94644 2.19939,-4.08899 0.22368,-0.14255 4.24475,-0.26161 8.93569,-0.26458 7.56863,-0.005 8.54184,-0.0696 8.64306,-0.57551 0.0762,-0.38085 0.93387,-0.7782 2.58351,-1.19693 5.36109,-1.36078 9.10024,-3.9699 10.94354,-7.63623 0.90123,-1.79255 1.03764,-2.45386 1.04381,-5.06062 0.006,-2.62838 -0.12735,-3.28173 -1.08178,-5.29167 -1.85598,-3.908511 -5.1381,-6.609031 -9.31807,-7.666881 -2.10409,-0.53249 -21.37899,-1.08861 -23.06493,-0.66547 -0.68617,0.17222 -0.92396,0.45715 -0.92396,1.10713 v 0.87522 h 8.85432 c 7.17538,0 9.06771,0.10126 9.97966,0.53401 3.46121,1.64245 5.87115,5.389651 6.13773,9.543521 0.22887,3.56635 -0.56026,5.77679 -2.8888,8.09179 -2.97099,2.95371 -3.44891,3.08116 -12.29122,3.27756 l -7.68622,0.17073 -0.18675,0.92106 c -0.10271,0.50658 -0.68618,2.47899 -1.29659,4.38314 -1.89129,5.89975 -6.47123,12.99756 -12.44019,19.2793 -2.71225,2.85437 -2.97746,3.20638 -1.14726,1.52269 1.30929,-1.20447 3.54672,-3.50538 4.97206,-5.11312 z m -41.74922,6.0895 c 0.26398,-0.40399 2.1468,-1.29354 3.35185,-1.5836 l 1.05798,-0.25467 -0.88159,-0.4798 c -1.44205,-0.78483 -4.16563,-1.31771 -5.47724,-1.07165 -1.3219,0.24799 -1.46448,0.67712 -0.99873,3.00587 0.21668,1.08344 0.28134,1.122 1.49849,0.89366 0.69962,-0.13125 1.35178,-0.36066 1.44924,-0.50981 z m -22.9325,0.0713 c -0.001,-0.14552 -0.43807,-0.45924 -0.97014,-0.69716 l -0.96738,-0.43258 0.83283,0.69716 c 0.90538,0.7579 1.1089,0.83759 1.10469,0.43258 z m -4.58876,-2.11667 c -0.003,-0.14552 -0.15929,-0.5027 -0.34738,-0.79375 -0.27653,-0.4279 -0.343,-0.37727 -0.34737,0.26459 -0.003,0.43656 0.15335,0.79375 0.34737,0.79375 0.19403,0 0.35035,-0.11906 0.34738,-0.26459 z m 27.08521,-2.09447 c -0.33729,-0.0883 -0.97229,-0.0915 -1.41111,-0.007 -0.43883,0.0844 -0.16287,0.15662 0.61324,0.16054 0.77612,0.004 1.13515,-0.0651 0.79787,-0.15343 z m 26.25355,-6.3993 0.11247,-5.58335 4.97342,-7.55762 c 2.73537,-4.15669 5.40958,-8.32611 5.94269,-9.26538 0.97212,-1.71276 2.46401,-2.70196 4.07505,-2.70196 0.70482,0 0.72343,-0.15399 0.62869,-5.20347 l -0.0976,-5.20348 -1.87217,-0.188071 c -2.03098,-0.20403 -2.39814,-0.53128 -2.75748,-2.45776 -0.41372,-2.218 -2.27938,-7.17591 -3.71701,-9.87778 -4.59699,-8.63957 -13.29852,-16.07914 -22.25682,-19.02897 l -2.38124,-0.78411 0.0203,-5.703876 c 0.0112,-3.137133 0.13631,-6.338877 0.27803,-7.114989 0.25722,-1.408506 0.2606,-1.411006 1.83175,-1.354568 0.86574,0.0311 2.96313,0.526795 4.66088,1.101547 l 3.08679,1.045003 v -7.122934 c 0,-5.322872 -0.13451,-7.575892 -0.53228,-8.915314 -0.56644,-1.907445 -2.23482,-4.588374 -5.00154,-8.037069 -3.0453,-3.795918 -7.65199,-5.358222 -13.05783,-4.428413 -3.86856,0.665393 -5.73344,1.705144 -7.70438,4.295514 -0.9414,1.237261 -2.39231,3.057383 -3.22423,4.044715 -2.84706,3.378877 -2.74579,2.685314 -2.86458,19.617878 -0.10133,14.443896 -0.13324,15.071776 -0.77653,15.275946 -1.13836,0.3613 -5.69763,3.47647 -8.1962,5.60012 -2.2888,1.94537 -6.81277,7.3155 -7.03937,8.35601 -0.0605,0.27782 -0.2947,0.66445 -0.52044,0.85918 -0.73497,0.634 -2.60784,5.55358 -3.68987,9.69241 -0.58187,2.22568 -1.21864,4.24032 -1.41505,4.47698 -0.19641,0.23665 -0.78205,0.47939 -1.30143,0.53942 l -0.94432,0.109131 -0.0959,6.36418 -0.0959,6.36417 1.556,0.75596 c 2.40403,1.16797 3.8904,2.68316 5.15799,5.25799 1.08292,2.19974 1.17959,2.69517 1.4304,7.33066 0.16384,3.02831 0.48922,5.57485 0.83247,6.51515 0.30991,0.84901 0.59012,2.19839 0.62268,2.99861 0.0326,0.80022 0.17304,-2.99005 0.31217,-8.42283 0.40147,-15.67682 2.01949,-30.206981 4.57086,-41.047301 1.59078,-6.75896 1.99899,-7.33898 6.69954,-9.51915 3.70146,-1.71678 4.58601,-1.99846 4.58601,-1.46037 0,0.22453 0.64566,-0.40859 1.4348,-1.40693 1.55814,-1.97119 3.31348,-3.23808 4.07932,-2.9442 0.28004,0.10746 0.4831,-0.0429 0.4831,-0.35776 0,-0.29872 -0.31924,-0.64446 -0.70942,-0.76829 -0.39018,-0.12384 -0.92404,-0.65048 -1.18634,-1.17031 -0.51536,-1.02132 -1.63201,-5.705825 -1.63201,-6.84651 0,-0.384753 -0.40494,-1.180794 -0.89987,-1.76898 -1.14099,-1.355995 -1.12341,-3.779757 0.0311,-4.287252 1.36075,-0.598152 2.01646,-4.32998 1.37015,-7.797949 l -0.19724,-1.058333 4.2122,-1.009493 c 4.60971,-1.104761 6.70542,-1.080038 9.41836,0.111108 2.71433,1.191757 3.42672,2.927158 3.37659,8.225532 -0.0188,1.984931 -0.0126,4.292446 0.0137,5.127812 0.0383,1.214987 -0.17258,1.793106 -1.05385,2.889731 -0.95668,1.190465 -1.10168,1.64714 -1.10168,3.469994 0,1.89172 0.0796,2.11908 0.80552,2.30128 0.44303,0.11119 1.94731,1.08935 3.34285,2.17368 2.01499,1.56565 2.61236,2.25018 2.90183,3.32519 0.30768,1.14264 0.54476,1.38749 1.52071,1.57058 3.2902,0.61724 9.72444,3.75073 11.42819,5.56554 1.56969,1.67203 2.83956,5.58377 1.81265,5.58377 -0.22728,0 -1.0743,-0.68991 -1.88225,-1.53314 -1.14245,-1.19232 -2.1289,-1.7709 -4.43745,-2.60268 -4.25733,-1.53392 -5.98655,-1.7758 -2.61566,-0.36587 4.50858,1.88578 7.60098,4.12935 9.21435,6.68509 3.43697,5.44451 9.01821,21.763641 8.46034,24.737371 -0.41889,2.23285 -3.18133,3.97198 -8.9353,5.62532 -1.59626,0.45867 -2.97716,0.90882 -3.06866,1.00032 -0.0915,0.0915 0.13905,4.68569 0.51235,10.20929 0.3733,5.5236 0.68264,10.32073 0.68741,10.66028 0.005,0.33955 0.15651,0.61736 0.33718,0.61736 0.18425,0 0.3779,-2.45189 0.44097,-5.58336 z m -58.6413,-1.79688 c -0.61837,-1.00499 -1.20138,-1.7502 -1.29556,-1.65602 -0.0942,0.0942 0.0831,0.53434 0.39391,0.97811 0.74669,1.06605 0.7196,1.56295 -0.0522,0.95765 -0.57056,-0.44746 -0.57844,-0.43067 -0.10393,0.22139 1.15959,1.59351 1.56139,1.94684 1.8667,1.64153 0.18537,-0.18536 -0.14815,-1.06879 -0.80891,-2.14266 z m 0.009,1.55094 c -0.24543,-0.29573 -0.35711,-0.62683 -0.24816,-0.73577 0.10894,-0.10894 0.37527,0.13302 0.59185,0.53769 0.46208,0.86341 0.29054,0.96228 -0.34369,0.19808 z m -8.5664,-11.73605 c 0.25528,-0.16229 0.30516,-0.4581 0.12611,-0.74781 -0.23212,-0.37559 -0.38348,-0.31631 -0.69935,0.27389 -0.4111,0.76816 -0.18442,0.95557 0.57324,0.47392 z m 5.75126,-1.26501 c 0,-0.0733 -0.27782,-0.35107 -0.61736,-0.61736 -0.55953,-0.43881 -0.57201,-0.42633 -0.1332,0.13319 0.46086,0.58764 0.75056,0.77452 0.75056,0.48417 z m 54.0632,-2.21711 c -0.24255,-0.0979 -0.63941,-0.0979 -0.88196,0 -0.24253,0.0979 -0.0441,0.17794 0.44097,0.17794 0.48507,0 0.68351,-0.0801 0.44099,-0.17794 z m -66.7632,-4.34535 c -0.40834,-0.25839 -0.52917,-1.08282 -0.52917,-3.61057 0,-1.80165 -0.0397,-5.05712 -0.0882,-7.23438 l -0.0882,-3.95867 -1.14653,-0.29709 c -1.80999,-0.46902 -1.45977,-1.290801 0.60568,-1.421231 1.35096,-0.0853 1.85586,0.0311 2.20486,0.5084 0.41143,0.562671 0.45266,0.565331 0.45266,0.0292 0,-0.92079 -1.22072,-1.04037 -8.90008,-0.87184 -7.278304,0.15973 -8.609513,0.37832 -10.557162,1.733601 -1.267276,0.88184 -1.60912,0.82063 -0.793968,-0.14215 l 0.672038,-0.793751 -0.795913,0.673991 c -0.437752,0.3707 -0.732225,0.73768 -0.654384,0.81552 0.07784,0.0778 -0.239767,0.55296 -0.705793,1.05581 -0.969818,1.04645 -1.900855,3.86032 -1.900855,5.74495 0,2.1673 1.631027,6.75502 2.293659,6.45156 0.08987,-0.0412 0.999628,0.31448 2.021679,0.7903 1.80704,0.84129 2.086842,0.86509 10.148549,0.86319 5.36812,-0.001 8.10376,-0.11999 7.76111,-0.33681 z m -8.8133,-1.93999 c -0.31456,-0.37903 -0.60954,-0.42728 -1.07833,-0.17639 -1.667289,0.89231 -2.839294,-0.32177 -1.420042,-1.47101 0.744822,-0.60312 0.783092,-0.82084 0.550842,-3.13347 l -0.249589,-2.48532 -0.612333,1.14176 c -0.808047,1.50669 -1.596732,1.997 -2.40017,1.49214 -0.477267,-0.2999 -0.641076,-0.96955 -0.721866,-2.951 -0.14151,-3.47065 0.34883,-4.05267 3.147506,-3.73604 1.604462,0.18153 2.027082,0.12048 2.194982,-0.31705 0.26991,-0.70338 1.25031,-0.69885 1.52118,0.007 0.17121,0.44616 0.56784,0.50426 2.11921,0.31043 2.76778,-0.34581 3.29246,0.2218 3.29246,3.56189 0,1.79701 -0.15096,2.67325 -0.51222,2.97306 -0.85105,0.70632 -1.72676,0.26353 -2.5963,-1.31277 -0.45369,-0.82246 -0.97175,-1.49538 -1.15124,-1.49538 -0.51508,0 -0.40511,4.49843 0.11462,4.689 0.33911,0.12434 0.34495,0.26382 0.0253,0.60384 -0.30361,0.32293 -0.31238,0.60757 -0.0325,1.0557 0.86778,1.38954 -1.12964,2.52302 -2.19147,1.24359 z m 1.75774,-0.46602 c 0,-1.01729 -3.85533,-1.67315 -4.424229,-0.75264 -0.401421,0.64951 0.146007,0.81424 1.413329,0.42528 0.96367,-0.29575 1.30817,-0.27097 1.6304,0.1173 0.43981,0.52994 1.3805,0.67308 1.3805,0.21006 z m -2.49977,-4.74486 c -0.0201,-1.92509 -0.12175,-2.60967 -0.30039,-2.02208 -0.25397,0.83539 -0.0895,4.93249 0.19801,4.93249 0.073,0 0.11906,-1.30969 0.10238,-2.91041 z m 3.13234,-4.07734 c 1.23418,0.10248 1.30883,0.17801 1.32761,1.34331 0.0235,1.45739 0.7362,2.92238 1.3269,2.72746 0.59107,-0.19504 0.74891,-4.40816 0.19035,-5.08118 -0.33219,-0.40027 -0.82784,-0.47027 -2.0461,-0.28896 -2.36933,0.35261 -2.49972,0.5592 -2.41867,3.8324 l 0.071,2.86722 0.1206,-2.75441 0.1206,-2.75442 z m -6.22411,3.37178 c 0.236779,-0.43656 0.524646,-1.34938 0.639704,-2.02847 0.189079,-1.11598 0.31943,-1.23434 1.355446,-1.23074 1.82385,0.006 1.28471,-0.99448 -0.734438,-1.36337 -2.318948,-0.42366 -2.724728,-0.0134 -2.724728,2.7549 0,1.20508 0.105833,2.29689 0.235185,2.42624 0.419489,0.41949 0.78961,0.25126 1.228831,-0.55856 z m 2.06376,-2.02847 c 0,-0.19403 -0.16812,-0.35278 -0.3736,-0.35278 -0.205475,0 -0.275481,0.15875 -0.155565,0.35278 0.119916,0.19403 0.288035,0.35278 0.373595,0.35278 0.0856,0 0.15557,-0.15875 0.15557,-0.35278 z m 4.58611,-0.35278 c 0,-0.19403 -0.16812,-0.35278 -0.3736,-0.35278 -0.20547,0 -0.27548,0.15875 -0.15556,0.35278 0.11991,0.19403 0.28803,0.35278 0.37359,0.35278 0.0856,0 0.15557,-0.15875 0.15557,-0.35278 z m -2.35615,-3.27709 c -0.10793,-0.17464 -0.34834,-0.15675 -0.5457,0.0406 -0.19403,0.19403 -0.23565,0.54231 -0.0925,0.77396 0.19776,0.32 0.32886,0.31024 0.5457,-0.0406 0.15697,-0.25399 0.19859,-0.60227 0.0925,-0.77396 z m -6.463292,9.65296 c 0,-1.33374 0.0697,-1.43659 0.970139,-1.43158 0.533576,0.003 1.189552,0.14437 1.457723,0.31421 0.384822,0.24373 0.33377,0.35763 -0.242233,0.54045 -0.4014,0.1274 -0.779562,0.57969 -0.840362,1.0051 -0.0608,0.4254 -0.388357,0.82641 -0.727906,0.89113 -0.506179,0.0965 -0.617361,-0.14112 -0.617361,-1.31931 z m 9.763332,0.87979 c -0.74204,-0.26828 -1.43945,-0.57807 -1.5498,-0.68842 -0.373,-0.37301 0.86248,-0.61282 2.59101,-0.50292 1.44745,0.092 1.71907,0.22077 1.71907,0.81485 0,0.8917 -0.96953,1.02394 -2.76028,0.37649 z m 0.0189,-0.76602 c -0.11722,-0.11722 -0.42149,-0.12976 -0.67616,-0.0279 -0.28142,0.11262 -0.19783,0.19621 0.21314,0.21314 0.37189,0.0153 0.58025,-0.0681 0.46302,-0.18529 z m 109.10388,-0.8452 v -4.93888 l -1.14653,-0.005 c -2.12322,-0.009 -2.78285,-0.34661 -2.66482,-1.36421 0.0986,-0.84982 0.25594,-0.93259 1.95927,-1.03066 l 1.85208,-0.10663 v -2.45101 -2.451011 h -3.74827 -3.74825 l 0.22049,1.10243 c 0.12126,0.606341 0.22048,4.495711 0.22048,8.643061 v 7.54062 h 3.52778 3.52778 z m 14.35075,4.0237 c 4.88693,-3.62831 4.14805,-11.4642 -1.41793,-15.03722 -1.75917,-1.129281 -1.91198,-1.160301 -6.3095,-1.280931 l -4.50665,-0.12362 v 2.486431 2.48644 l 1.85208,0.10663 c 1.79899,0.10357 1.85208,0.13697 1.85208,1.16496 0,1.028 -0.0531,1.06139 -1.85208,1.16497 l -1.85208,0.10663 v 4.95144 4.95145 l 5.6195,-0.11919 c 5.04394,-0.10698 5.72142,-0.19485 6.61458,-0.85799 z m 1.34787,-0.14314 c 0.35118,-0.38806 0.55914,-0.70556 0.46213,-0.70556 -0.097,0 -0.46373,0.3175 -0.81491,0.70556 -0.35118,0.38806 -0.55915,0.70556 -0.46213,0.70556 0.097,0 0.46373,-0.3175 0.81491,-0.70556 z m -119.06251,-7.27596 c 0,-4.06898 -0.14926,-7.16042 -0.36519,-7.5639 -0.22729,-0.424691 -0.72685,-0.677031 -1.32292,-0.668241 l -0.95772,0.0141 0.97013,0.526311 0.97014,0.5263 0.0857,5.19221 c 0.0471,2.85571 0.0591,6.10699 0.0266,7.22507 -0.034,1.16989 0.0794,1.94728 0.26712,1.83126 0.18171,-0.1123 0.3262,-3.24983 0.3262,-7.08314 z m 65.9557,1.21222 c 1.23471,-1.32531 0.89724,-3.16869 -0.73456,-4.01253 -0.89931,-0.46506 -1.13186,-0.46506 -2.03117,0 -0.55857,0.28884 -1.1142,0.78215 -1.23472,1.09624 -0.68879,1.79498 0.46637,3.68836 2.2503,3.68836 0.60617,0 1.32719,-0.31808 1.75015,-0.77207 z m -1.49699,-10.070991 c -0.0811,-0.53625 -0.1496,-0.18124 -0.15226,0.7889 -0.003,0.970141 0.0637,1.408881 0.14744,0.974991 0.0837,-0.4339 0.0859,-1.227651 0.005,-1.763891 z m -4.66287,-1.15138 c 0.35119,-0.38806 0.55913,-0.70556 0.46213,-0.70556 -0.097,0 -0.46372,0.3175 -0.81491,0.70556 -0.35118,0.38805 -0.55914,0.70555 -0.46213,0.70555 0.097,0 0.46373,-0.3175 0.81491,-0.70555 z m -6.99096,-2.88837 c -0.11262,-0.28142 -0.19622,-0.19783 -0.21314,0.21314 -0.0153,0.37188 0.0681,0.58024 0.18529,0.46302 0.11723,-0.11723 0.12976,-0.4215 0.0279,-0.67616 z m 11.99445,-1.41111 c -0.11263,-0.28142 -0.19621,-0.19783 -0.21314,0.21314 -0.0153,0.37188 0.0681,0.58024 0.18529,0.46302 0.11722,-0.11723 0.12976,-0.4215 0.0279,-0.67616 z m 40.56703,-2.03688 -5.58224,-0.19003 -1.82608,-4.59712 c -2.07434,-5.2221 -3.93435,-8.5261 -6.88776,-12.235 -3.95198,-4.9629 -8.39178,-8.96249 -14.87028,-13.395852 -4.5169,-3.091014 -4.23334,-2.974463 -4.23334,-1.739927 0,0.927017 0.25193,1.193816 2.02849,2.148356 5.8435,3.139694 14.83161,11.002593 18.01738,15.761833 2.65862,3.9717 4.64346,8.22745 6.59752,14.1459 0.11028,0.33405 1.62379,0.4229 6.24208,0.36643 l 6.09648,-0.0746 z m -104.06084,-1.77753 c 3.57697,-10.78233 13.88981,-22.72487 24.70766,-28.612087 2.12216,-1.154911 2.20082,-1.24724 2.20486,-2.587981 0.004,-1.171864 -0.0651,-1.30339 -0.43679,-0.836998 -0.24254,0.304341 -1.9491,1.552109 -3.79236,2.77282 -4.70887,3.118467 -7.93651,5.822706 -11.45778,9.599766 -5.34448,5.73268 -9.59341,12.48919 -11.99356,19.07172 -0.73752,2.02269 -0.78816,2.38789 -0.31796,2.29306 0.30761,-0.062 0.79627,-0.82718 1.08593,-1.7003 z m 118.77757,0.50031 c 1.08792,-2.83507 -3.17118,-13.9186 -8.32606,-21.66698 -6.31734,-9.495726 -15.71751,-18.621851 -26.38481,-25.615604 -3.55678,-2.331921 -12.3232,-6.982877 -14.74372,-7.822159 l -1.16177,-0.402832 0.75793,1.348546 c 0.58798,1.04618 1.20441,1.530405 2.74928,2.159638 2.94267,1.198578 7.93738,3.729959 10.96753,5.558478 9.08351,5.481369 18.81389,14.829159 24.9959,24.013083 3.38968,5.03567 4.76211,7.51595 7.05791,12.7553 2.46486,5.62514 2.9477,7.38017 2.3349,8.48664 -0.26256,0.47408 -0.48302,1.06041 -0.48989,1.30294 -0.0186,0.65692 1.98595,0.5523 2.2428,-0.11705 z m -119.94049,-2.97844 c 4.11788,-10.94636 13.84966,-22.20191 24.99282,-28.906091 l 2.02847,-1.220413 v -8.010499 c 0,-4.405775 0.10339,-8.279928 0.22975,-8.609229 0.29181,-0.760426 -0.30866,-0.5937 -4.67774,1.298837 -7.10738,3.078674 -15.6641,8.876808 -21.74761,14.736429 -6.67323,6.427638 -10.8787,12.091726 -14.499765,19.528826 -1.827946,3.75431 -4.0798,9.86641 -4.775013,12.96057 l -0.318427,1.41722 8.818105,-0.0942 8.8181,-0.0942 z m 60.24675,-1.6446 c 0.86621,-0.17324 0.96348,-0.27602 0.50441,-0.53293 -0.31281,-0.17506 -0.56876,-0.53366 -0.56876,-0.7969 0,-0.76992 -1.42154,-0.20218 -1.85039,0.73901 -0.28506,0.62567 -0.25953,1.07445 0.10259,1.80313 l 0.48211,0.97014 0.12844,-0.98391 c 0.10075,-0.77178 0.35982,-1.03018 1.2016,-1.19854 z m 4.9176,0.7096 c -0.41587,-0.71515 -0.51628,-0.48625 -0.17586,0.40088 0.12097,0.31528 0.29427,0.49892 0.38511,0.40809 0.0908,-0.0908 -0.003,-0.45486 -0.20925,-0.80897 z m -15.68768,-8.93409 c 0.98271,-1.45521 2.21481,-3.49135 2.738,-4.52475 l 0.95124,-1.8789 -3.71394,3.21971 c -2.04265,1.77084 -3.80706,3.37041 -3.92091,3.5546 -0.49162,0.79546 -1.27188,0.18692 -2.44112,-1.90387 -0.68859,-1.23132 -1.24955,-2.46163 -1.24658,-2.73403 0.004,-0.40249 0.0695,-0.39614 0.34737,0.0339 0.22258,0.34442 0.34386,0.37702 0.34738,0.0934 0.003,-0.23969 0.531,0.13773 1.17339,0.8387 1.45968,1.5928 1.70398,1.52132 5.344,-1.56348 l 2.80783,-2.37955 -0.1044,-3.29769 c -0.10193,-3.220123 -0.0779,-3.334625 1.02326,-4.867922 1.16794,-1.626328 1.56468,-3.622481 0.77515,-3.89999 -0.24831,-0.08727 -0.98971,0.428945 -1.64756,1.147151 -1.15146,1.257095 -1.95794,1.391639 -1.95794,0.326638 0,-0.369034 -0.44531,-0.508347 -1.62492,-0.508347 -1.31306,0 -1.75807,0.169262 -2.31865,0.881945 -0.81927,1.041514 -2.52185,1.185325 -3.76064,0.317646 -0.73842,-0.517212 -0.85768,-0.517212 -1.42919,0 -0.34295,0.310364 -0.94177,0.564298 -1.33072,0.564298 -0.38894,0 -0.79298,0.08581 -0.89786,0.190692 -0.32123,0.321225 1.18337,6.650169 1.72929,7.274109 0.28182,0.3221 0.89759,0.68231 1.36838,0.80047 1.04131,0.26135 1.04718,0.3972 0.11861,2.74598 -0.54472,1.37784 -0.68204,2.28602 -0.52561,3.47606 0.2371,1.80365 2.2191,10.10913 2.53403,10.61868 0.11151,0.18044 1.02909,-1.06865 2.03907,-2.77576 1.00996,-1.70711 2.64033,-4.29447 3.62305,-5.74967 z m 23.43664,5.34943 c -1.0641,-1.98832 -4.46612,-4.15845 -9.16149,-5.84407 l -2.6042,-0.9349 0.23584,1.47487 c 0.1297,0.81118 0.30584,1.58815 0.39141,1.7266 0.0856,0.13845 0.98231,0.3614 1.99276,0.49545 2.09267,0.2776 7.0915,2.09787 8.40921,3.06211 1.10909,0.81158 1.16091,0.81298 0.73647,0.0199 z m -11.31979,-2.55452 c -1.37561,-0.39795 -1.75642,-0.36368 -1.56289,0.14061 0.11802,0.30756 0.56419,0.4063 1.31184,0.2903 1.10147,-0.17089 1.10845,-0.18288 0.25105,-0.43091 z m -50.44723,-5.08797 c 0.4557,-0.48507 0.74917,-0.88194 0.65215,-0.88194 -0.097,0 -0.54923,0.39687 -1.00493,0.88194 -0.4557,0.48507 -0.74917,0.88194 -0.65215,0.88194 0.097,0 0.54923,-0.39687 1.00493,-0.88194 z m 77.61111,-0.29128 c 0,-0.0632 -0.43656,-0.49976 -0.97013,-0.97014 l -0.97014,-0.85525 0.85525,0.97014 c 0.79935,0.90674 1.08503,1.13192 1.08502,0.85525 z m -73.90694,-3.76566 c 1.34778,-1.3582 2.37114,-2.46945 2.27413,-2.46945 -0.097,0 -1.27913,1.11125 -2.62691,2.46945 -1.34779,1.35819 -2.37115,2.46944 -2.27414,2.46944 0.097,0 1.27913,-1.11125 2.62692,-2.46944 z m 70.37916,0.24239 c 0,-0.0607 -0.51594,-0.57665 -1.14653,-1.14653 l -1.14652,-1.03614 1.03614,1.14653 c 0.96582,1.06872 1.25691,1.30868 1.25691,1.03614 z m -2.46943,-2.128 c 0,-0.0669 -0.35719,-0.42413 -0.79375,-0.79375 l -0.79375,-0.67203 0.67203,0.79375 c 0.63155,0.74593 0.91547,0.95435 0.91547,0.67203 z m -63.80779,-1.90676 c 0.43881,-0.55952 0.42633,-0.572 -0.1332,-0.13319 -0.58763,0.46086 -0.77451,0.75056 -0.48416,0.75056 0.0733,0 0.35107,-0.27782 0.61736,-0.61737 z m 62.0439,0.48417 c 0,-0.0733 -0.27781,-0.35107 -0.61736,-0.61736 -0.55953,-0.43881 -0.57201,-0.42633 -0.1332,0.13319 0.46086,0.58764 0.75056,0.77452 0.75056,0.48417 z m -1.41111,-1.05833 c 0,-0.0733 -0.27782,-0.35107 -0.61736,-0.61736 -0.55953,-0.43881 -0.57201,-0.42633 -0.1332,0.13319 0.46086,0.58764 0.75056,0.77452 0.75056,0.48417 z m -39.71271,-7.123952 c 0.70521,-0.705209 0.71789,-2.12962 0.0213,-2.396911 -0.60765,-0.233176 -2.64265,0.104162 -2.64066,0.437735 0.003,0.463779 1.41535,2.513541 1.73219,2.513541 0.18302,0 0.58223,-0.249464 0.88713,-0.554365 z m 5.31686,-1.209524 c 0,-1.175926 -0.0588,-1.234722 -1.23472,-1.234722 -1.0234,0 -1.25459,0.14024 -1.35081,0.819406 -0.19977,1.410018 0.18482,1.8814 1.43658,1.760766 1.05682,-0.101848 1.14895,-0.209745 1.14895,-1.34545 z m 5.01973,-0.213136 c -0.11722,-0.117225 -0.42149,-0.129758 -0.67615,-0.02785 -0.28143,0.112616 -0.19782,0.196209 0.21313,0.213137 0.3719,0.01532 0.58025,-0.06806 0.46302,-0.185287 z m -1.31556,-1.197975 c 0,-0.47037 0.23518,-0.705555 0.70555,-0.705555 0.40934,0 0.70556,0.235185 0.70556,0.560175 0,0.462699 0.26089,0.517073 1.49931,0.312476 0.82462,-0.136234 1.56968,-0.313166 1.65569,-0.393181 0.086,-0.08002 0.22272,-1.532877 0.30379,-3.228583 0.1904,-3.982456 -0.33513,-5.363475 -2.46196,-6.469687 -1.91557,-0.996328 -5.94957,-1.11114 -8.58155,-0.244239 -0.97014,0.319538 -2.16914,0.669607 -2.66444,0.777931 -0.8078,0.176667 -0.88525,0.334322 -0.75195,1.530614 0.0817,0.733513 0.29853,1.520694 0.48175,1.749291 0.21603,0.269531 0.14289,0.78353 -0.20809,1.462249 -0.29768,0.57564 -0.68765,1.698294 -0.86661,2.494786 l -0.32538,1.448168 h 1.12667 c 0.61966,0 1.30378,0.177122 1.52027,0.393604 0.28962,0.289621 0.60859,0.243022 1.20738,-0.176389 0.84185,-0.58965 2.66533,-0.754013 3.32836,-0.300008 0.20818,0.14255 0.48101,0.536994 0.60629,0.876543 0.15807,0.428414 0.60906,0.617361 1.47357,0.617361 1.01061,0 1.2458,-0.133197 1.24579,-0.705556 z m 30.88996,79.963818 c -1.01783,-0.74426 -0.52854,-1.74673 3.12288,-6.39814 3.05756,-3.89491 3.27583,-4.2766 2.81873,-4.92919 -0.955,-1.36344 -0.25863,-4.06335 1.52953,-5.93023 0.8092,-0.84482 1.19949,-0.97014 3.02141,-0.97014 1.95992,0 2.17873,0.0866 3.46177,1.36961 1.217,1.21699 1.36961,1.56156 1.36961,3.09231 0,2.25345 -0.94395,4.00814 -2.60096,4.83488 -1.45725,0.72708 -3.36992,0.58091 -4.11287,-0.3143 -0.36656,-0.44166 -0.93933,0.11855 -3.65143,3.57131 -1.76918,2.25232 -3.29606,4.50321 -3.39306,5.00197 -0.21431,1.10172 -0.69543,1.30821 -1.56561,0.67192 z m 13.10168,-10.20201 c 2.26652,-2.48843 2.00374,-5.44454 -0.60387,-6.79298 -2.15284,-1.11328 -4.40616,-0.45643 -5.46617,1.59341 -0.65708,1.27064 -0.66184,1.79454 -0.0242,2.6627 0.4903,0.66756 0.52852,0.66038 1.51861,-0.28535 1.15679,-1.10496 1.5891,-1.19123 2.21149,-0.44129 0.63681,0.76731 -0.18335,2.59025 -1.29037,2.8681 -0.79426,0.19934 -0.80833,0.24348 -0.21993,0.68985 1.01723,0.77167 3.04366,0.61768 3.87443,-0.29444 z m -4.11023,-1.15558 c 0.57245,-0.29603 1.04081,-0.77228 1.04081,-1.05834 0,-0.71554 -0.11652,-0.6711 -1.41111,0.53823 -1.2651,1.18178 -1.16933,1.31628 0.3703,0.52011 z m 1.31498,-37.901291 c -1.11039,-2.23862 -3.09248,-5.49896 -4.40464,-7.24521 -2.87982,-3.83254 -7.88045,-8.89891 -11.12184,-11.26807 -2.47591,-1.80966 -3.03746,-2.72717 -0.71805,-1.17322 3.95678,2.65096 10.741,9.58914 13.82561,14.13938 1.32771,1.95857 4.72797,8.93316 4.5545,9.34218 -0.0642,0.15134 -1.02519,-1.55644 -2.13558,-3.79506 z m -21.79361,-19.04365 c 0,-0.19485 0.47625,-0.60056 1.05833,-0.90156 0.58208,-0.30101 1.05833,-0.49369 1.05833,-0.42818 0,0.0655 -0.47625,0.47121 -1.05833,0.90156 -0.58208,0.43035 -1.05833,0.62304 -1.05833,0.42818 z"
       id="path1" />
  </g>
</svg>
